<?xml version="1.0" ?><svg id="Layer_1" style="enable-background:new 0 0 512 512;" version="1.1" viewBox="0 0 512 512" xml:space="preserve" xmlns="http://www.w3.org/2000/svg" xmlns:xlink="http://www.w3.org/1999/xlink"><style type="text/css">
	.st0{fill:#3B4652;}
	.st1{fill:#2B79C2;}
</style><g><path class="st0" d="M135,444.2c-4.6,4.6,0.7,15.6,9.6,26.4l31.5-31.5c2.7-2.7,7.2-2.7,9.9,0c2.7,2.7,2.7,7.2,0,9.9l-31.8,31.8   c12.2,11.6,26.3,19.9,31.8,14.4l60.1-60.1l-51-51L135,444.2z M217.8,438.1c2.7,2.7,2.7,7.2,0,9.9L203,462.7c-1.4,1.4-3.2,2-5,2   c-1.8,0-3.6-0.7-5-2c-2.7-2.7-2.7-7.2,0-9.9l14.7-14.7C210.6,435.3,215,435.3,217.8,438.1z"/><path class="st0" d="M326.3,253l-60.4,60.4l51,51l60.4-60.4c3.2-3.2,0.5-10.4-5.1-18.4L339,318.7c-1.4,1.4-3.2,2-5,2   c-1.8,0-3.6-0.7-5-2c-2.7-2.7-2.7-7.2,0-9.9l34.2-34.2C350,260.1,332,247.3,326.3,253z M323.1,330.7l-8.1,8.1c-1.4,1.4-3.2,2-5,2   c-1.8,0-3.6-0.7-5-2c-2.7-2.7-2.7-7.2,0-9.9l8.1-8.1c2.7-2.7,7.2-2.7,9.9,0C325.8,323.5,325.8,328,323.1,330.7z"/><path class="st0" d="M330.8,444.2l31.8,31.8c11.6-12.3,19.9-26.3,14.4-31.8l-121-121L185.7,253c-3.2-3.2-10.4-0.5-18.4,5.1   l33.2,33.2c2.7,2.7,2.7,7.2,0,9.9c-1.4,1.4-3.1,2.1-4.9,2.1c-1.8,0-3.6-0.7-5-2.1l-34.2-34.2c-14.5,13.3-27.3,31.3-21.6,37   L326,495.2c4.6,4.7,15.6-0.7,26.4-9.6l-31.5-31.5c-2.7-2.7-2.7-7.2,0-9.9C323.6,441.5,328,441.5,330.8,444.2z M234,338.6   c-1.4,1.4-3.2,2-5,2c-1.8,0-3.6-0.7-5-2l-15.5-15.5c-2.7-2.7-2.7-7.2,0-9.9c2.7-2.7,7.2-2.7,9.9,0l15.5,15.5   C236.7,331.4,236.7,335.8,234,338.6z M316.3,437.1c-1.4,1.4-3.2,2.1-5,2.1c-1.8,0-3.6-0.7-4.9-2.1l-14.7-14.7   c-2.7-2.7-2.7-7.2,0-9.9c2.7-2.7,7.2-2.7,9.9,0l14.7,14.7C319.1,430,319.1,434.4,316.3,437.1z"/><path class="st1" d="M200.8,217.9c-3.3-7.4-5.3-15.6-5.9-24.5c-0.1-2-0.2-3.9-0.2-5.9c0-51.8,50.6-91.8,52.7-93.5l8.6-6.7l8.6,6.7   c2.1,1.7,52.7,41.7,52.7,93.5c0,1.9-0.1,3.9-0.2,5.8c-0.6,8.9-2.6,17.1-5.9,24.5c15.9-15.2,26.3-37.1,28.2-62.8   c0.2-2.7,0.3-5.4,0.3-8.1c0-64.8-56.4-110.7-62.9-115.7L256,15.1l-20.9,16.3c-6.4,5-62.9,50.9-62.9,115.7c0,2.7,0.1,5.4,0.3,8.1   C174.4,180.8,184.9,202.8,200.8,217.9z"/><path class="st0" d="M303.3,187.6c0-45.5-47.3-82.5-47.3-82.5s-47.3,36.9-47.3,82.5c0,1.6,0.1,3.2,0.2,4.8   c4.6,63.5,89.7,63.5,94.3,0C303.3,190.8,303.3,189.2,303.3,187.6z"/></g></svg>